# xmcd
#
# Track frame offsets:
#	150
#	14380
#	26010
#	39787
#	55507
#	68399
#	82193
#	98385
#	116348
#	131859
#	148421
#	160829
#	174848
#
# Disc length: 2521 seconds
# Revision: 1
# Processed by: cddbd v1.5.2PL0 Copyright (c) Steve Scherf et al.
# Submitted via: dBpowerAMP V12.0
#
DISCID=9b09d70d
DTITLE=Tom Armstrong - Wine Stained Heart
DYEAR=2011
DGENRE=Country
TTITLE0=Club Temptation
TTITLE1=Wine Stained Heart
TTITLE2=Four Years
TTITLE3=Countless Words And Endless Miles
TTITLE4=One Less Thing To Worry About
TTITLE5=This Honky Tonkin' Life
TTITLE6=Happy Hour
TTITLE7=Bar With No Name
TTITLE8=Killjoy
TTITLE9=Champagne Taste (On A Beer Budget)
TTITLE10=Tempting Fate
TTITLE11=Fortified Wine
TTITLE12=Julie
EXTD=
EXTT0=
EXTT1=
EXTT2=
EXTT3=
EXTT4=
EXTT5=
EXTT6=
EXTT7=
EXTT8=
EXTT9=
EXTT10=
EXTT11=
EXTT12=
PLAYORDER=
